G04 EAGLE Gerber RS-274X export*
G75*
%MOMM*%
%FSLAX34Y34*%
%LPD*%
%INSoldermask Bottom*%
%IPPOS*%
%AMOC8*
5,1,8,0,0,1.08239X$1,22.5*%
G01*
G04 Define Apertures*
%ADD10C,0.853200*%
%ADD11C,0.655600*%
D10*
X800970Y-31900D03*
X800970Y25900D03*
D11*
X-238760Y517525D03*
X-238760Y532765D03*
X-742950Y536575D03*
X-742950Y547370D03*
X-736600Y40640D03*
X-736600Y3810D03*
X-541655Y-22225D03*
X13335Y-58420D03*
X52705Y-58420D03*
X323215Y-138430D03*
X315595Y-116205D03*
X36830Y-82550D03*
X-829945Y142875D03*
X-782955Y95885D03*
X-652145Y-99060D03*
X-554355Y-50800D03*
X-581660Y-76835D03*
X646430Y-85725D03*
X800100Y-20320D03*
X624840Y-37465D03*
X800100Y-5080D03*
X626745Y-53975D03*
X800100Y-13970D03*
X708025Y-20320D03*
X800100Y10160D03*
X579755Y-53975D03*
X-324485Y-97155D03*
X-421640Y-83820D03*
X-608965Y-107950D03*
X548640Y-35560D03*
X-336550Y-78740D03*
X-418465Y-78740D03*
X-602615Y-107950D03*
X295910Y-139700D03*
X294640Y-129540D03*
X-689610Y-99060D03*
X-551180Y-59690D03*
X-27940Y-400050D03*
X-398780Y-29210D03*
X-421640Y-55245D03*
X-801370Y494665D03*
X-774700Y521335D03*
X-526415Y12700D03*
X-412115Y48260D03*
X-689610Y12700D03*
X-800735Y128905D03*
X-43180Y-403225D03*
X-232410Y-213995D03*
X-430530Y-30480D03*
X-598805Y-85090D03*
X-457200Y-31115D03*
X-320675Y501015D03*
X-274320Y547370D03*
X-234950Y507365D03*
X-748665Y-41275D03*
X-685165Y-124460D03*
X-685165Y-142240D03*
X-415290Y-83820D03*
X-679450Y-98425D03*
X38735Y34925D03*
X-15875Y-408305D03*
X-516890Y-128905D03*
X-608965Y251460D03*
X-603250Y537845D03*
X-634365Y-153035D03*
X-217805Y-346710D03*
X-601345Y-79375D03*
X-581025Y-59055D03*
X-710565Y143510D03*
X-399415Y543560D03*
X-598170Y60960D03*
X-4445Y60960D03*
X-552450Y2540D03*
X44450Y-90170D03*
X-558800Y-3810D03*
X-210185Y-224155D03*
X718185Y-443865D03*
X727710Y-453390D03*
X464185Y11430D03*
X35560Y-27940D03*
X-628015Y52705D03*
X713740Y-494665D03*
X713740Y-438150D03*
X783590Y-352425D03*
X-596265Y8255D03*
X51435Y-46355D03*
X526415Y5715D03*
X-7620Y-400050D03*
X-574040Y-26670D03*
X-692785Y-122555D03*
X-678180Y-107950D03*
X-212090Y-408940D03*
X-183515Y-408940D03*
X-38100Y-400050D03*
X-67310Y-367030D03*
X-105410Y-251460D03*
X-97790Y-278765D03*
X-109855Y-297180D03*
X-58420Y-245745D03*
X-24765Y-233045D03*
X-65405Y-186055D03*
X-13970Y-237490D03*
X-11430Y-292735D03*
X-86995Y-334645D03*
X-62865Y-321945D03*
X-69850Y-313055D03*
X13970Y-229870D03*
X24765Y-405130D03*
X-198120Y-396240D03*
X18415Y-405130D03*
X-154940Y-382270D03*
X-178435Y-370840D03*
X375285Y-35560D03*
X386080Y-31115D03*
X-57150Y-325120D03*
X-51435Y-310515D03*
X-52070Y-321945D03*
X-46990Y-304165D03*
X-46990Y-331470D03*
X-28575Y-313055D03*
X20955Y-32385D03*
X61595Y-32385D03*
M02*
