G04 EAGLE Gerber RS-274X export*
G75*
%MOMM*%
%FSLAX34Y34*%
%LPD*%
%INSolderpaste Top*%
%IPPOS*%
%AMOC8*
5,1,8,0,0,1.08239X$1,22.5*%
G01*
G04 Define Apertures*
%ADD10R,1.200000X1.800000*%
%ADD11R,1.900000X1.400000*%
%ADD12R,1.500000X0.700000*%
%ADD13R,0.600000X0.900000*%
%ADD14C,0.147500*%
%ADD15R,0.900000X1.500000*%
%ADD16R,0.800000X0.800000*%
%ADD17C,0.125000*%
%ADD18R,1.200000X0.550000*%
%ADD19R,0.300000X0.800000*%
%ADD20R,0.400000X0.800000*%
%ADD21R,0.560000X0.820000*%
%ADD22C,0.067500*%
%ADD23R,2.000000X1.200000*%
%ADD24R,1.350000X0.600000*%
%ADD25R,1.150000X0.300000*%
%ADD26R,2.000000X2.180000*%
%ADD27R,1.200000X0.600000*%
%ADD28R,1.010000X1.460000*%
%ADD29C,0.110000*%
%ADD30R,0.900000X0.600000*%
%ADD31R,1.500000X3.600000*%
%ADD32R,0.700000X0.900000*%
%ADD33R,0.900000X0.700000*%
%ADD34R,2.200000X2.000000*%
%ADD35R,0.900000X0.800000*%
%ADD36R,0.800000X0.900000*%
%ADD37R,1.168400X1.600200*%
%ADD38R,0.127000X0.127000*%
%ADD39R,1.150000X0.800000*%
%ADD40R,0.500000X1.050000*%
%ADD41R,1.400000X1.050000*%
%ADD42R,1.400000X1.400000*%
%ADD43R,0.970000X0.940000*%
%ADD44R,0.940000X0.970000*%
D10*
X-687840Y380000D03*
X-687840Y437000D03*
D11*
X-830340Y350000D03*
X-820340Y481500D03*
D12*
X-791840Y398000D03*
X-787840Y409000D03*
X-791840Y420000D03*
X-793840Y431000D03*
X-791840Y442000D03*
X-793840Y453000D03*
X-791840Y464000D03*
X-791840Y475000D03*
D10*
X-687840Y408500D03*
X-687840Y465500D03*
D13*
X-350500Y501000D03*
X-360000Y501000D03*
X-369500Y501000D03*
X-369500Y473000D03*
X-350500Y473000D03*
D14*
X42737Y56063D02*
X42737Y37037D01*
X42737Y56063D02*
X47163Y56063D01*
X47163Y37037D01*
X42737Y37037D01*
X42737Y38438D02*
X47163Y38438D01*
X47163Y39839D02*
X42737Y39839D01*
X42737Y41240D02*
X47163Y41240D01*
X47163Y42641D02*
X42737Y42641D01*
X42737Y44042D02*
X47163Y44042D01*
X47163Y45443D02*
X42737Y45443D01*
X42737Y46844D02*
X47163Y46844D01*
X47163Y48245D02*
X42737Y48245D01*
X42737Y49646D02*
X47163Y49646D01*
X47163Y51047D02*
X42737Y51047D01*
X42737Y52448D02*
X47163Y52448D01*
X47163Y53849D02*
X42737Y53849D01*
X42737Y55250D02*
X47163Y55250D01*
X30037Y56063D02*
X30037Y37037D01*
X30037Y56063D02*
X34463Y56063D01*
X34463Y37037D01*
X30037Y37037D01*
X30037Y38438D02*
X34463Y38438D01*
X34463Y39839D02*
X30037Y39839D01*
X30037Y41240D02*
X34463Y41240D01*
X34463Y42641D02*
X30037Y42641D01*
X30037Y44042D02*
X34463Y44042D01*
X34463Y45443D02*
X30037Y45443D01*
X30037Y46844D02*
X34463Y46844D01*
X34463Y48245D02*
X30037Y48245D01*
X30037Y49646D02*
X34463Y49646D01*
X34463Y51047D02*
X30037Y51047D01*
X30037Y52448D02*
X34463Y52448D01*
X34463Y53849D02*
X30037Y53849D01*
X30037Y55250D02*
X34463Y55250D01*
X17337Y56063D02*
X17337Y37037D01*
X17337Y56063D02*
X21763Y56063D01*
X21763Y37037D01*
X17337Y37037D01*
X17337Y38438D02*
X21763Y38438D01*
X21763Y39839D02*
X17337Y39839D01*
X17337Y41240D02*
X21763Y41240D01*
X21763Y42641D02*
X17337Y42641D01*
X17337Y44042D02*
X21763Y44042D01*
X21763Y45443D02*
X17337Y45443D01*
X17337Y46844D02*
X21763Y46844D01*
X21763Y48245D02*
X17337Y48245D01*
X17337Y49646D02*
X21763Y49646D01*
X21763Y51047D02*
X17337Y51047D01*
X17337Y52448D02*
X21763Y52448D01*
X21763Y53849D02*
X17337Y53849D01*
X17337Y55250D02*
X21763Y55250D01*
X4637Y56063D02*
X4637Y37037D01*
X4637Y56063D02*
X9063Y56063D01*
X9063Y37037D01*
X4637Y37037D01*
X4637Y38438D02*
X9063Y38438D01*
X9063Y39839D02*
X4637Y39839D01*
X4637Y41240D02*
X9063Y41240D01*
X9063Y42641D02*
X4637Y42641D01*
X4637Y44042D02*
X9063Y44042D01*
X9063Y45443D02*
X4637Y45443D01*
X4637Y46844D02*
X9063Y46844D01*
X9063Y48245D02*
X4637Y48245D01*
X4637Y49646D02*
X9063Y49646D01*
X9063Y51047D02*
X4637Y51047D01*
X4637Y52448D02*
X9063Y52448D01*
X9063Y53849D02*
X4637Y53849D01*
X4637Y55250D02*
X9063Y55250D01*
X-8063Y56063D02*
X-8063Y37037D01*
X-8063Y56063D02*
X-3637Y56063D01*
X-3637Y37037D01*
X-8063Y37037D01*
X-8063Y38438D02*
X-3637Y38438D01*
X-3637Y39839D02*
X-8063Y39839D01*
X-8063Y41240D02*
X-3637Y41240D01*
X-3637Y42641D02*
X-8063Y42641D01*
X-8063Y44042D02*
X-3637Y44042D01*
X-3637Y45443D02*
X-8063Y45443D01*
X-8063Y46844D02*
X-3637Y46844D01*
X-3637Y48245D02*
X-8063Y48245D01*
X-8063Y49646D02*
X-3637Y49646D01*
X-3637Y51047D02*
X-8063Y51047D01*
X-8063Y52448D02*
X-3637Y52448D01*
X-3637Y53849D02*
X-8063Y53849D01*
X-8063Y55250D02*
X-3637Y55250D01*
X-20763Y56063D02*
X-20763Y37037D01*
X-20763Y56063D02*
X-16337Y56063D01*
X-16337Y37037D01*
X-20763Y37037D01*
X-20763Y38438D02*
X-16337Y38438D01*
X-16337Y39839D02*
X-20763Y39839D01*
X-20763Y41240D02*
X-16337Y41240D01*
X-16337Y42641D02*
X-20763Y42641D01*
X-20763Y44042D02*
X-16337Y44042D01*
X-16337Y45443D02*
X-20763Y45443D01*
X-20763Y46844D02*
X-16337Y46844D01*
X-16337Y48245D02*
X-20763Y48245D01*
X-20763Y49646D02*
X-16337Y49646D01*
X-16337Y51047D02*
X-20763Y51047D01*
X-20763Y52448D02*
X-16337Y52448D01*
X-16337Y53849D02*
X-20763Y53849D01*
X-20763Y55250D02*
X-16337Y55250D01*
X-33463Y56063D02*
X-33463Y37037D01*
X-33463Y56063D02*
X-29037Y56063D01*
X-29037Y37037D01*
X-33463Y37037D01*
X-33463Y38438D02*
X-29037Y38438D01*
X-29037Y39839D02*
X-33463Y39839D01*
X-33463Y41240D02*
X-29037Y41240D01*
X-29037Y42641D02*
X-33463Y42641D01*
X-33463Y44042D02*
X-29037Y44042D01*
X-29037Y45443D02*
X-33463Y45443D01*
X-33463Y46844D02*
X-29037Y46844D01*
X-29037Y48245D02*
X-33463Y48245D01*
X-33463Y49646D02*
X-29037Y49646D01*
X-29037Y51047D02*
X-33463Y51047D01*
X-33463Y52448D02*
X-29037Y52448D01*
X-29037Y53849D02*
X-33463Y53849D01*
X-33463Y55250D02*
X-29037Y55250D01*
X-46163Y56063D02*
X-46163Y37037D01*
X-46163Y56063D02*
X-41737Y56063D01*
X-41737Y37037D01*
X-46163Y37037D01*
X-46163Y38438D02*
X-41737Y38438D01*
X-41737Y39839D02*
X-46163Y39839D01*
X-46163Y41240D02*
X-41737Y41240D01*
X-41737Y42641D02*
X-46163Y42641D01*
X-46163Y44042D02*
X-41737Y44042D01*
X-41737Y45443D02*
X-46163Y45443D01*
X-46163Y46844D02*
X-41737Y46844D01*
X-41737Y48245D02*
X-46163Y48245D01*
X-46163Y49646D02*
X-41737Y49646D01*
X-41737Y51047D02*
X-46163Y51047D01*
X-46163Y52448D02*
X-41737Y52448D01*
X-41737Y53849D02*
X-46163Y53849D01*
X-46163Y55250D02*
X-41737Y55250D01*
X-46163Y-37037D02*
X-46163Y-56063D01*
X-46163Y-37037D02*
X-41737Y-37037D01*
X-41737Y-56063D01*
X-46163Y-56063D01*
X-46163Y-54662D02*
X-41737Y-54662D01*
X-41737Y-53261D02*
X-46163Y-53261D01*
X-46163Y-51860D02*
X-41737Y-51860D01*
X-41737Y-50459D02*
X-46163Y-50459D01*
X-46163Y-49058D02*
X-41737Y-49058D01*
X-41737Y-47657D02*
X-46163Y-47657D01*
X-46163Y-46256D02*
X-41737Y-46256D01*
X-41737Y-44855D02*
X-46163Y-44855D01*
X-46163Y-43454D02*
X-41737Y-43454D01*
X-41737Y-42053D02*
X-46163Y-42053D01*
X-46163Y-40652D02*
X-41737Y-40652D01*
X-41737Y-39251D02*
X-46163Y-39251D01*
X-46163Y-37850D02*
X-41737Y-37850D01*
X-33463Y-37037D02*
X-33463Y-56063D01*
X-33463Y-37037D02*
X-29037Y-37037D01*
X-29037Y-56063D01*
X-33463Y-56063D01*
X-33463Y-54662D02*
X-29037Y-54662D01*
X-29037Y-53261D02*
X-33463Y-53261D01*
X-33463Y-51860D02*
X-29037Y-51860D01*
X-29037Y-50459D02*
X-33463Y-50459D01*
X-33463Y-49058D02*
X-29037Y-49058D01*
X-29037Y-47657D02*
X-33463Y-47657D01*
X-33463Y-46256D02*
X-29037Y-46256D01*
X-29037Y-44855D02*
X-33463Y-44855D01*
X-33463Y-43454D02*
X-29037Y-43454D01*
X-29037Y-42053D02*
X-33463Y-42053D01*
X-33463Y-40652D02*
X-29037Y-40652D01*
X-29037Y-39251D02*
X-33463Y-39251D01*
X-33463Y-37850D02*
X-29037Y-37850D01*
X-20763Y-37037D02*
X-20763Y-56063D01*
X-20763Y-37037D02*
X-16337Y-37037D01*
X-16337Y-56063D01*
X-20763Y-56063D01*
X-20763Y-54662D02*
X-16337Y-54662D01*
X-16337Y-53261D02*
X-20763Y-53261D01*
X-20763Y-51860D02*
X-16337Y-51860D01*
X-16337Y-50459D02*
X-20763Y-50459D01*
X-20763Y-49058D02*
X-16337Y-49058D01*
X-16337Y-47657D02*
X-20763Y-47657D01*
X-20763Y-46256D02*
X-16337Y-46256D01*
X-16337Y-44855D02*
X-20763Y-44855D01*
X-20763Y-43454D02*
X-16337Y-43454D01*
X-16337Y-42053D02*
X-20763Y-42053D01*
X-20763Y-40652D02*
X-16337Y-40652D01*
X-16337Y-39251D02*
X-20763Y-39251D01*
X-20763Y-37850D02*
X-16337Y-37850D01*
X-8063Y-37037D02*
X-8063Y-56063D01*
X-8063Y-37037D02*
X-3637Y-37037D01*
X-3637Y-56063D01*
X-8063Y-56063D01*
X-8063Y-54662D02*
X-3637Y-54662D01*
X-3637Y-53261D02*
X-8063Y-53261D01*
X-8063Y-51860D02*
X-3637Y-51860D01*
X-3637Y-50459D02*
X-8063Y-50459D01*
X-8063Y-49058D02*
X-3637Y-49058D01*
X-3637Y-47657D02*
X-8063Y-47657D01*
X-8063Y-46256D02*
X-3637Y-46256D01*
X-3637Y-44855D02*
X-8063Y-44855D01*
X-8063Y-43454D02*
X-3637Y-43454D01*
X-3637Y-42053D02*
X-8063Y-42053D01*
X-8063Y-40652D02*
X-3637Y-40652D01*
X-3637Y-39251D02*
X-8063Y-39251D01*
X-8063Y-37850D02*
X-3637Y-37850D01*
X4637Y-37037D02*
X4637Y-56063D01*
X4637Y-37037D02*
X9063Y-37037D01*
X9063Y-56063D01*
X4637Y-56063D01*
X4637Y-54662D02*
X9063Y-54662D01*
X9063Y-53261D02*
X4637Y-53261D01*
X4637Y-51860D02*
X9063Y-51860D01*
X9063Y-50459D02*
X4637Y-50459D01*
X4637Y-49058D02*
X9063Y-49058D01*
X9063Y-47657D02*
X4637Y-47657D01*
X4637Y-46256D02*
X9063Y-46256D01*
X9063Y-44855D02*
X4637Y-44855D01*
X4637Y-43454D02*
X9063Y-43454D01*
X9063Y-42053D02*
X4637Y-42053D01*
X4637Y-40652D02*
X9063Y-40652D01*
X9063Y-39251D02*
X4637Y-39251D01*
X4637Y-37850D02*
X9063Y-37850D01*
X17337Y-37037D02*
X17337Y-56063D01*
X17337Y-37037D02*
X21763Y-37037D01*
X21763Y-56063D01*
X17337Y-56063D01*
X17337Y-54662D02*
X21763Y-54662D01*
X21763Y-53261D02*
X17337Y-53261D01*
X17337Y-51860D02*
X21763Y-51860D01*
X21763Y-50459D02*
X17337Y-50459D01*
X17337Y-49058D02*
X21763Y-49058D01*
X21763Y-47657D02*
X17337Y-47657D01*
X17337Y-46256D02*
X21763Y-46256D01*
X21763Y-44855D02*
X17337Y-44855D01*
X17337Y-43454D02*
X21763Y-43454D01*
X21763Y-42053D02*
X17337Y-42053D01*
X17337Y-40652D02*
X21763Y-40652D01*
X21763Y-39251D02*
X17337Y-39251D01*
X17337Y-37850D02*
X21763Y-37850D01*
X30037Y-37037D02*
X30037Y-56063D01*
X30037Y-37037D02*
X34463Y-37037D01*
X34463Y-56063D01*
X30037Y-56063D01*
X30037Y-54662D02*
X34463Y-54662D01*
X34463Y-53261D02*
X30037Y-53261D01*
X30037Y-51860D02*
X34463Y-51860D01*
X34463Y-50459D02*
X30037Y-50459D01*
X30037Y-49058D02*
X34463Y-49058D01*
X34463Y-47657D02*
X30037Y-47657D01*
X30037Y-46256D02*
X34463Y-46256D01*
X34463Y-44855D02*
X30037Y-44855D01*
X30037Y-43454D02*
X34463Y-43454D01*
X34463Y-42053D02*
X30037Y-42053D01*
X30037Y-40652D02*
X34463Y-40652D01*
X34463Y-39251D02*
X30037Y-39251D01*
X30037Y-37850D02*
X34463Y-37850D01*
X42737Y-37037D02*
X42737Y-56063D01*
X42737Y-37037D02*
X47163Y-37037D01*
X47163Y-56063D01*
X42737Y-56063D01*
X42737Y-54662D02*
X47163Y-54662D01*
X47163Y-53261D02*
X42737Y-53261D01*
X42737Y-51860D02*
X47163Y-51860D01*
X47163Y-50459D02*
X42737Y-50459D01*
X42737Y-49058D02*
X47163Y-49058D01*
X47163Y-47657D02*
X42737Y-47657D01*
X42737Y-46256D02*
X47163Y-46256D01*
X47163Y-44855D02*
X42737Y-44855D01*
X42737Y-43454D02*
X47163Y-43454D01*
X47163Y-42053D02*
X42737Y-42053D01*
X42737Y-40652D02*
X47163Y-40652D01*
X47163Y-39251D02*
X42737Y-39251D01*
X42737Y-37850D02*
X47163Y-37850D01*
D15*
X-774600Y-87500D03*
X-761900Y-87500D03*
X-749200Y-87500D03*
X-736500Y-87500D03*
X-723800Y-87500D03*
X-711100Y-87500D03*
X-698400Y-87500D03*
X-685700Y-87500D03*
X-673000Y-87500D03*
X-660300Y-87500D03*
X-647600Y-87500D03*
X-634900Y-87500D03*
X-622200Y-87500D03*
X-609500Y-87500D03*
X-609500Y87500D03*
X-622200Y87500D03*
X-634900Y87500D03*
X-647600Y87500D03*
X-660300Y87500D03*
X-673000Y87500D03*
X-685700Y87500D03*
X-698400Y87500D03*
X-711100Y87500D03*
X-723800Y87500D03*
X-736500Y87500D03*
X-749200Y87500D03*
X-761900Y87500D03*
X-774600Y87500D03*
D16*
X-717400Y-15050D03*
X-729900Y-27550D03*
X-729900Y-15050D03*
X-729900Y-2550D03*
X-717400Y-27550D03*
X-717400Y-2550D03*
X-704900Y-27550D03*
X-704900Y-15050D03*
X-704900Y-2550D03*
D17*
X688875Y-424965D02*
X688875Y-433875D01*
X685125Y-433875D01*
X685125Y-424965D01*
X688875Y-424965D01*
X688875Y-432688D02*
X685125Y-432688D01*
X685125Y-431501D02*
X688875Y-431501D01*
X688875Y-430314D02*
X685125Y-430314D01*
X685125Y-429127D02*
X688875Y-429127D01*
X688875Y-427940D02*
X685125Y-427940D01*
X685125Y-426753D02*
X688875Y-426753D01*
X688875Y-425566D02*
X685125Y-425566D01*
X696875Y-424965D02*
X696875Y-433875D01*
X693125Y-433875D01*
X693125Y-424965D01*
X696875Y-424965D01*
X696875Y-432688D02*
X693125Y-432688D01*
X693125Y-431501D02*
X696875Y-431501D01*
X696875Y-430314D02*
X693125Y-430314D01*
X693125Y-429127D02*
X696875Y-429127D01*
X696875Y-427940D02*
X693125Y-427940D01*
X693125Y-426753D02*
X696875Y-426753D01*
X696875Y-425566D02*
X693125Y-425566D01*
X704875Y-424965D02*
X704875Y-433875D01*
X701125Y-433875D01*
X701125Y-424965D01*
X704875Y-424965D01*
X704875Y-432688D02*
X701125Y-432688D01*
X701125Y-431501D02*
X704875Y-431501D01*
X704875Y-430314D02*
X701125Y-430314D01*
X701125Y-429127D02*
X704875Y-429127D01*
X704875Y-427940D02*
X701125Y-427940D01*
X701125Y-426753D02*
X704875Y-426753D01*
X704875Y-425566D02*
X701125Y-425566D01*
X712875Y-424965D02*
X712875Y-433875D01*
X709125Y-433875D01*
X709125Y-424965D01*
X712875Y-424965D01*
X712875Y-432688D02*
X709125Y-432688D01*
X709125Y-431501D02*
X712875Y-431501D01*
X712875Y-430314D02*
X709125Y-430314D01*
X709125Y-429127D02*
X712875Y-429127D01*
X712875Y-427940D02*
X709125Y-427940D01*
X709125Y-426753D02*
X712875Y-426753D01*
X712875Y-425566D02*
X709125Y-425566D01*
X713075Y-454125D02*
X713075Y-463035D01*
X709325Y-463035D01*
X709325Y-454125D01*
X713075Y-454125D01*
X713075Y-461848D02*
X709325Y-461848D01*
X709325Y-460661D02*
X713075Y-460661D01*
X713075Y-459474D02*
X709325Y-459474D01*
X709325Y-458287D02*
X713075Y-458287D01*
X713075Y-457100D02*
X709325Y-457100D01*
X709325Y-455913D02*
X713075Y-455913D01*
X713075Y-454726D02*
X709325Y-454726D01*
X704875Y-454125D02*
X704875Y-463035D01*
X701125Y-463035D01*
X701125Y-454125D01*
X704875Y-454125D01*
X704875Y-461848D02*
X701125Y-461848D01*
X701125Y-460661D02*
X704875Y-460661D01*
X704875Y-459474D02*
X701125Y-459474D01*
X701125Y-458287D02*
X704875Y-458287D01*
X704875Y-457100D02*
X701125Y-457100D01*
X701125Y-455913D02*
X704875Y-455913D01*
X704875Y-454726D02*
X701125Y-454726D01*
X696875Y-454125D02*
X696875Y-463035D01*
X693125Y-463035D01*
X693125Y-454125D01*
X696875Y-454125D01*
X696875Y-461848D02*
X693125Y-461848D01*
X693125Y-460661D02*
X696875Y-460661D01*
X696875Y-459474D02*
X693125Y-459474D01*
X693125Y-458287D02*
X696875Y-458287D01*
X696875Y-457100D02*
X693125Y-457100D01*
X693125Y-455913D02*
X696875Y-455913D01*
X696875Y-454726D02*
X693125Y-454726D01*
X688875Y-454125D02*
X688875Y-463035D01*
X685125Y-463035D01*
X685125Y-454125D01*
X688875Y-454125D01*
X688875Y-461848D02*
X685125Y-461848D01*
X685125Y-460661D02*
X688875Y-460661D01*
X688875Y-459474D02*
X685125Y-459474D01*
X685125Y-458287D02*
X688875Y-458287D01*
X688875Y-457100D02*
X685125Y-457100D01*
X685125Y-455913D02*
X688875Y-455913D01*
X688875Y-454726D02*
X685125Y-454726D01*
D18*
X385001Y-24500D03*
X385001Y-15000D03*
X385001Y-5500D03*
X358999Y-5500D03*
X358999Y-24500D03*
D19*
X37500Y-392500D03*
X32500Y-392500D03*
X27500Y-392500D03*
X22500Y-392500D03*
X17500Y-392500D03*
X12500Y-392500D03*
X7500Y-392500D03*
X2500Y-392500D03*
X-2500Y-392500D03*
X-7500Y-392500D03*
X-12500Y-392500D03*
X-17500Y-392500D03*
X-22500Y-392500D03*
X-27500Y-392500D03*
X-32500Y-392500D03*
X-37500Y-392500D03*
X-42500Y-392500D03*
X-47500Y-392500D03*
X-52500Y-392500D03*
X-57500Y-392500D03*
X-62500Y-392500D03*
X-67500Y-392500D03*
X-72500Y-392500D03*
X-77500Y-392500D03*
D20*
X47500Y-417500D03*
X-87500Y-417500D03*
D21*
X467000Y1000D03*
D22*
X460613Y7487D02*
X453687Y7487D01*
X453687Y9513D01*
X460613Y9513D01*
X460613Y7487D01*
X460613Y8128D02*
X453687Y8128D01*
X453687Y8769D02*
X460613Y8769D01*
X460613Y9410D02*
X453687Y9410D01*
X453687Y2487D02*
X460613Y2487D01*
X453687Y2487D02*
X453687Y4513D01*
X460613Y4513D01*
X460613Y2487D01*
X460613Y3128D02*
X453687Y3128D01*
X453687Y3769D02*
X460613Y3769D01*
X460613Y4410D02*
X453687Y4410D01*
X453687Y-2513D02*
X460613Y-2513D01*
X453687Y-2513D02*
X453687Y-487D01*
X460613Y-487D01*
X460613Y-2513D01*
X460613Y-1872D02*
X453687Y-1872D01*
X453687Y-1231D02*
X460613Y-1231D01*
X460613Y-590D02*
X453687Y-590D01*
X453687Y-7513D02*
X460613Y-7513D01*
X453687Y-7513D02*
X453687Y-5487D01*
X460613Y-5487D01*
X460613Y-7513D01*
X460613Y-6872D02*
X453687Y-6872D01*
X453687Y-6231D02*
X460613Y-6231D01*
X460613Y-5590D02*
X453687Y-5590D01*
X473387Y-7513D02*
X480313Y-7513D01*
X473387Y-7513D02*
X473387Y-5487D01*
X480313Y-5487D01*
X480313Y-7513D01*
X480313Y-6872D02*
X473387Y-6872D01*
X473387Y-6231D02*
X480313Y-6231D01*
X480313Y-5590D02*
X473387Y-5590D01*
X473387Y-2513D02*
X480313Y-2513D01*
X473387Y-2513D02*
X473387Y-487D01*
X480313Y-487D01*
X480313Y-2513D01*
X480313Y-1872D02*
X473387Y-1872D01*
X473387Y-1231D02*
X480313Y-1231D01*
X480313Y-590D02*
X473387Y-590D01*
X473387Y2487D02*
X480313Y2487D01*
X473387Y2487D02*
X473387Y4513D01*
X480313Y4513D01*
X480313Y2487D01*
X480313Y3128D02*
X473387Y3128D01*
X473387Y3769D02*
X480313Y3769D01*
X480313Y4410D02*
X473387Y4410D01*
X473387Y7487D02*
X480313Y7487D01*
X473387Y7487D02*
X473387Y9513D01*
X480313Y9513D01*
X480313Y7487D01*
X480313Y8128D02*
X473387Y8128D01*
X473387Y8769D02*
X480313Y8769D01*
X480313Y9410D02*
X473387Y9410D01*
D23*
X837750Y-381000D03*
X837750Y-325000D03*
D24*
X801000Y-368000D03*
X801000Y-358000D03*
X801000Y-348000D03*
X801000Y-338000D03*
D25*
X790220Y-36500D03*
X790220Y-28500D03*
X790220Y-15500D03*
X790220Y-5500D03*
X790220Y-500D03*
X790220Y9500D03*
X790220Y22500D03*
X790220Y30500D03*
X790220Y27500D03*
X790220Y19500D03*
X790220Y14500D03*
X790220Y4500D03*
X790220Y-10500D03*
X790220Y-20500D03*
X790220Y-25500D03*
X790220Y-33500D03*
D26*
X835270Y-54100D03*
X835270Y48100D03*
X795970Y-54100D03*
X795970Y48100D03*
D27*
X589500Y-35500D03*
X589500Y-45000D03*
X589500Y-54500D03*
X614500Y-54500D03*
X614500Y-45000D03*
X614500Y-35500D03*
D28*
X-501350Y9600D03*
X-486650Y9600D03*
X-501350Y-9600D03*
X-486650Y-9600D03*
D29*
X-528800Y17400D02*
X-537100Y17400D01*
X-537100Y20700D01*
X-528800Y20700D01*
X-528800Y17400D01*
X-528800Y18445D02*
X-537100Y18445D01*
X-537100Y19490D02*
X-528800Y19490D01*
X-528800Y20535D02*
X-537100Y20535D01*
X-537100Y4700D02*
X-528800Y4700D01*
X-537100Y4700D02*
X-537100Y8000D01*
X-528800Y8000D01*
X-528800Y4700D01*
X-528800Y5745D02*
X-537100Y5745D01*
X-537100Y6790D02*
X-528800Y6790D01*
X-528800Y7835D02*
X-537100Y7835D01*
X-537100Y-8000D02*
X-528800Y-8000D01*
X-537100Y-8000D02*
X-537100Y-4700D01*
X-528800Y-4700D01*
X-528800Y-8000D01*
X-528800Y-6955D02*
X-537100Y-6955D01*
X-537100Y-5910D02*
X-528800Y-5910D01*
X-528800Y-4865D02*
X-537100Y-4865D01*
X-537100Y-20700D02*
X-528800Y-20700D01*
X-537100Y-20700D02*
X-537100Y-17400D01*
X-528800Y-17400D01*
X-528800Y-20700D01*
X-528800Y-19655D02*
X-537100Y-19655D01*
X-537100Y-18610D02*
X-528800Y-18610D01*
X-528800Y-17565D02*
X-537100Y-17565D01*
X-459200Y-20700D02*
X-450900Y-20700D01*
X-459200Y-20700D02*
X-459200Y-17400D01*
X-450900Y-17400D01*
X-450900Y-20700D01*
X-450900Y-19655D02*
X-459200Y-19655D01*
X-459200Y-18610D02*
X-450900Y-18610D01*
X-450900Y-17565D02*
X-459200Y-17565D01*
X-459200Y-8000D02*
X-450900Y-8000D01*
X-459200Y-8000D02*
X-459200Y-4700D01*
X-450900Y-4700D01*
X-450900Y-8000D01*
X-450900Y-6955D02*
X-459200Y-6955D01*
X-459200Y-5910D02*
X-450900Y-5910D01*
X-450900Y-4865D02*
X-459200Y-4865D01*
X-459200Y4700D02*
X-450900Y4700D01*
X-459200Y4700D02*
X-459200Y8000D01*
X-450900Y8000D01*
X-450900Y4700D01*
X-450900Y5745D02*
X-459200Y5745D01*
X-459200Y6790D02*
X-450900Y6790D01*
X-450900Y7835D02*
X-459200Y7835D01*
X-459200Y17400D02*
X-450900Y17400D01*
X-459200Y17400D02*
X-459200Y20700D01*
X-450900Y20700D01*
X-450900Y17400D01*
X-450900Y18445D02*
X-459200Y18445D01*
X-459200Y19490D02*
X-450900Y19490D01*
X-450900Y20535D02*
X-459200Y20535D01*
D30*
X324000Y-106500D03*
X324000Y-116000D03*
X324000Y-125500D03*
X352000Y-125500D03*
X352000Y-106500D03*
D31*
X616500Y-113000D03*
X571500Y-113000D03*
D32*
X602500Y-86000D03*
X615500Y-86000D03*
D33*
X633000Y-20500D03*
X633000Y-33500D03*
D32*
X602500Y-71000D03*
X615500Y-71000D03*
D33*
X559000Y-54500D03*
X559000Y-41500D03*
D32*
X303500Y-145000D03*
X316500Y-145000D03*
D33*
X431500Y-119100D03*
X431500Y-132100D03*
D34*
X400000Y-113000D03*
X400000Y-143000D03*
D35*
X303000Y-126500D03*
X303000Y-105500D03*
D36*
X428500Y-60000D03*
X447500Y-60000D03*
X438000Y-39000D03*
D33*
X278000Y-124500D03*
X278000Y-111500D03*
X-751000Y541500D03*
X-751000Y528500D03*
D32*
X-712500Y-123000D03*
X-725500Y-123000D03*
D37*
X-194380Y-421000D03*
X-209620Y-421000D03*
D33*
X-175000Y-419500D03*
X-175000Y-406500D03*
D38*
X-58000Y-210140D03*
X-58000Y-255860D03*
D32*
X-56500Y-278000D03*
X-69500Y-278000D03*
D39*
X8500Y-238000D03*
X43500Y-238000D03*
X-40500Y-186000D03*
X-75500Y-186000D03*
X44500Y-199000D03*
X9500Y-199000D03*
D33*
X66000Y-198500D03*
X66000Y-185500D03*
D32*
X-191500Y-403000D03*
X-204500Y-403000D03*
D40*
X-198500Y-370500D03*
X-185500Y-370500D03*
X-192000Y-349500D03*
D32*
X-150500Y-374000D03*
X-163500Y-374000D03*
D33*
X357000Y-40500D03*
X357000Y-53500D03*
D16*
X333500Y-6000D03*
X318500Y-6000D03*
D32*
X285500Y-6000D03*
X298500Y-6000D03*
X316500Y-25000D03*
X329500Y-25000D03*
D33*
X415000Y1500D03*
X415000Y-11500D03*
X-97000Y-297500D03*
X-97000Y-310500D03*
X-167000Y-345500D03*
X-167000Y-358500D03*
X-153000Y-345500D03*
X-153000Y-358500D03*
X-78000Y-297500D03*
X-78000Y-310500D03*
X-60000Y-297500D03*
X-60000Y-310500D03*
X-40000Y-297500D03*
X-40000Y-310500D03*
X-20000Y-297500D03*
X-20000Y-310500D03*
X1000Y-297500D03*
X1000Y-310500D03*
X21000Y-297500D03*
X21000Y-310500D03*
X40000Y-297500D03*
X40000Y-310500D03*
D35*
X-106000Y-259500D03*
X-106000Y-278500D03*
X-85000Y-269000D03*
D33*
X-127000Y-262500D03*
X-127000Y-275500D03*
X721000Y-501500D03*
X721000Y-488500D03*
X706000Y-501500D03*
X706000Y-488500D03*
X692000Y-488500D03*
X692000Y-501500D03*
X678000Y-488500D03*
X678000Y-501500D03*
X-332000Y481500D03*
X-332000Y494500D03*
X-179000Y546500D03*
X-179000Y533500D03*
D41*
X-192500Y547500D03*
X-227500Y547500D03*
X-227500Y532500D03*
X-192500Y532500D03*
D32*
X-178500Y514000D03*
X-191500Y514000D03*
D33*
X-641000Y547500D03*
X-641000Y534500D03*
D41*
X-592500Y548500D03*
X-627500Y548500D03*
X-627500Y533500D03*
X-592500Y533500D03*
D33*
X-578000Y546500D03*
X-578000Y533500D03*
X-391024Y547600D03*
X-391024Y534600D03*
D41*
X-342500Y548500D03*
X-377500Y548500D03*
X-377500Y533500D03*
X-342500Y533500D03*
D33*
X-328000Y548340D03*
X-328000Y535340D03*
D36*
X35900Y82600D03*
X14900Y82600D03*
D33*
X69200Y45900D03*
X69200Y58900D03*
X71000Y-40100D03*
X71000Y-27100D03*
D42*
X97300Y-44100D03*
X97300Y-22100D03*
D32*
X32300Y-68300D03*
X45300Y-68300D03*
X32700Y67100D03*
X19700Y67100D03*
D43*
X-717500Y510000D03*
X-732500Y510000D03*
D33*
X-772000Y528500D03*
X-772000Y541500D03*
D44*
X-523000Y-48500D03*
X-523000Y-63500D03*
D33*
X-543000Y-63500D03*
X-543000Y-50500D03*
D44*
X-378000Y-170500D03*
X-378000Y-185500D03*
D33*
X-378000Y-208500D03*
X-378000Y-221500D03*
D44*
X-357000Y-170500D03*
X-357000Y-185500D03*
D33*
X-357000Y-208500D03*
X-357000Y-221500D03*
D43*
X-143500Y-303000D03*
X-128500Y-303000D03*
D33*
X-146000Y-275500D03*
X-146000Y-262500D03*
D44*
X-397000Y-170500D03*
X-397000Y-185500D03*
D33*
X-397000Y-208500D03*
X-397000Y-221500D03*
M02*
