M48
;GenerationSoftware,Autodesk,EAGLE,9.7.0*%
;CreationDate,2025-04-06T15:18:40Z*%
FMAT,2
ICI,OFF
METRIC,TZ,000.000
T2C0.300
T1C0.650
%
G90
M71
T1
X80097Y2590
X80097Y-3190
T2
X-74295Y53657
X-74295Y54737
X-73660Y4064
X-73660Y381
X-54165Y-2223
X1334Y-5842
X5271Y-5842
X32321Y-13843
X31559Y-11620
X3683Y-8255
X-82995Y14287
X-78296Y9589
X-65214Y-9906
X-55435Y-5080
X-58166Y-7683
X64643Y-8573
X80010Y-2032
X62484Y-3746
X80010Y-508
X62674Y-5398
X80010Y-1397
X70803Y-2032
X80010Y1016
X57975Y-5398
X-32448Y-9716
X-42164Y-8382
X-60896Y-10795
X54864Y-3556
X-33655Y-7874
X-41847Y-7874
X-60261Y-10795
X29591Y-13970
X29464Y-12954
X-68961Y-9906
X-55118Y-5969
X-2794Y-40005
X-39878Y-2921
X-42164Y-5524
X-80137Y49466
X-77470Y52133
X-52641Y1270
X-41212Y4826
X-68961Y1270
X-80074Y12890
X-4318Y-40323
X-23241Y-21400
X-43053Y-3048
X-59880Y-8509
X-45720Y-3111
X-32067Y50101
X-27432Y54737
X-23495Y50736
X-74867Y-4128
X-68517Y-12446
X-68517Y-14224
X-41529Y-8382
X-67945Y-9843
X3873Y3492
X-1587Y-40831
X-51689Y-12890
X-60896Y25146
X-60325Y53784
X-63436Y-15303
X-21781Y-34671
X-60134Y-7937
X-58102Y-5905
X-71057Y14351
X-39942Y54356
X-59817Y6096
X-444Y6096
X-55245Y254
X4445Y-9017
X-55880Y-381
X-21019Y-22415
X71819Y-44386
X72771Y-45339
X46418Y1143
X3556Y-2794
X-62801Y5271
X71374Y-49466
X71374Y-43815
X78359Y-35243
X-59626Y825
X5144Y-4636
X52641Y572
X-762Y-40005
X-57404Y-2667
X-69279Y-12255
X-67818Y-10795
X-21209Y-40894
X-18352Y-40894
X-23876Y51752
X-6731Y-36703
X-10541Y-25146
X-9779Y-27876
X-10985Y-29718
X-5842Y-24574
X-2477Y-23304
X-6540Y-18606
X-1397Y-23749
X-1143Y-29273
X-8700Y-33465
X-6286Y-32194
X-6985Y-31305
X1397Y-22987
X2477Y-40513
X-3810Y-40005
X1841Y-40513
X-15494Y-38227
X-17844Y-37084
X37529Y-3556
X38608Y-3111
X-5715Y-32512
X-5144Y-31051
X-5207Y-32194
X-4699Y-30416
X-4699Y-33147
X-2857Y-31305
X2096Y-3238
X6159Y-3238
X-23876Y53276
X-19812Y-39624
M30